# xmcd
#
# Track frame offsets:
#	150
#	14008
#	30862
#	45128
#	63525
#	79500
#	94501
#	109219
#	125589
#	141775
#	157165
#	178155
#	191486
#	206225
#	220962
#
# Disc length: 3165 seconds
#
# Revision: 1
# Processed by: cddbd v1.5.2PL0 Copyright (c) Steve Scherf et al.
# Submitted via: audiograbber 1.83.01
#
DISCID=d00c5b0f
DTITLE=Various Artist - Nashville Sounds Series
DYEAR=2006
DGENRE=Karaoke
TTITLE0=Be My Baby Tonight - Montgomery, John Michael
TTITLE1=My Night to Howl - Morgan, Lorrie
TTITLE2=Honky Tonk Superman - Tippin Aaron
TTITLE3=I'm Holding My Own - Parnell, Lee Roy
TTITLE4=I Love You Cause I Want To - Carter, Carlene
TTITLE5=Is It Raining at Your House - Gosdin, Vern
TTITLE6=Addicted to a Dollar - Stone, Doug
TTITLE7=Company Time - Davis, Linda
TTITLE8=I Just Want You to Know - Chestnutt, Mark
TTITLE9=Cryin' Time - Morgan, Lorrie
TTITLE10=Drivin' and Cryin' - Wariner, Steve
TTITLE11=Ace in the Hole - Strait, George
TTITLE12=That's My Story - Raye, Collin
TTITLE13=Words by Heart - Cyrus, Billy Ray
TTITLE14=I Can't Reach Her Anymore - Kershaw, Sammy
EXTD=Version 1
EXTT0=
EXTT1=
EXTT2=
EXTT3=
EXTT4=
EXTT5=
EXTT6=
EXTT7=
EXTT8=
EXTT9=
EXTT10=
EXTT11=
EXTT12=
EXTT13=
EXTT14=
PLAYORDER=
